<svg id="Layer_1" enable-background="new 0 0 496.188 496.188" height="512" viewBox="0 0 496.188 496.188" width="512" xmlns="http://www.w3.org/2000/svg"><path d="m436.978 48c0-26.467-21.532-48-48-48h-282c-26.467 0-48 21.533-48 48v400c0 26.467 21.533 48 48 48 232.025 0 219.642 1.38 225.761-3.342 1.562-1.207 99.724-99.464 100.489-100.374 5.379-6.405 3.75 10.686 3.75-344.284zm-346 400v-400c0-8.822 7.178-16 16-16h282c8.822 0 16 7.178 16 16v318h-82c-8.837 0-16 7.164-16 16v82h-200c-8.822 0-16-7.178-16-16zm248-6.627v-43.373h43.373zm-91-323.373c0-8.836 7.163-16 16-16h96c8.837 0 16 7.164 16 16s-7.163 16-16 16h-96c-8.837 0-16-7.164-16-16zm-43.686-34.314c6.248 6.249 6.248 16.379 0 22.628l-42.5 42.5c-6.249 6.248-16.379 6.248-22.628 0l-14.5-14.5c-6.248-6.249-6.248-16.379 0-22.628 6.249-6.248 16.379-6.248 22.628 0l3.186 3.187 31.186-31.187c6.249-6.248 16.379-6.248 22.628 0zm43.686 164.314c0-8.836 7.163-16 16-16h96c8.837 0 16 7.164 16 16s-7.163 16-16 16h-96c-8.837 0-16-7.164-16-16zm-43.686-34.314c6.248 6.249 6.248 16.379 0 22.628l-42.5 42.5c-6.249 6.248-16.379 6.248-22.628 0l-14.5-14.5c-6.248-6.249-6.248-16.379 0-22.628 6.249-6.248 16.379-6.248 22.628 0l3.186 3.187 31.186-31.187c6.249-6.248 16.379-6.248 22.628 0zm83.686 164.314c0 8.836-7.163 16-16 16h-8c-8.837 0-16-7.164-16-16s7.163-16 16-16h8c8.837 0 16 7.164 16 16zm-83.686-34.314c6.248 6.249 6.248 16.379 0 22.628l-42.5 42.5c-6.249 6.248-16.379 6.248-22.628 0l-14.5-14.5c-6.248-6.249-6.248-16.379 0-22.628 6.249-6.248 16.379-6.248 22.628 0l3.186 3.187 31.186-31.187c6.249-6.248 16.379-6.248 22.628 0z"/></svg>